<svg width="36" height="36" viewBox="0 0 36 36" fill="none" xmlns="http://www.w3.org/2000/svg">
<path d="M35.9921 18.5315C36.0011 18.2374 36.0023 17.9427 35.9963 17.6486C35.9909 17.3538 35.9777 17.0597 35.9579 16.7656C35.9375 16.4721 35.9099 16.1792 35.8756 15.8862C35.8408 15.5939 35.7994 15.3022 35.7502 15.0117C35.7016 14.7218 35.6452 14.4325 35.5821 14.1449C35.5191 13.8568 35.4489 13.5711 35.372 13.2866C35.2946 13.0027 35.2106 12.7206 35.1199 12.4403C35.0287 12.1599 34.9309 11.8826 34.8264 11.6071C34.722 11.3316 34.6103 11.0591 34.4927 10.7896C34.3744 10.5195 34.2502 10.2524 34.1187 9.98887C33.9879 9.72536 33.8504 9.46486 33.7064 9.20795C33.5629 8.95105 33.4129 8.69775 33.2562 8.44804C33.1001 8.19834 32.9375 7.95224 32.7694 7.71095C32.6007 7.46905 32.4267 7.23195 32.2466 6.99846C32.0665 6.76557 31.881 6.53687 31.6902 6.31298C31.4987 6.08909 31.3024 5.87 31.1001 5.65572C30.8979 5.44083 30.6908 5.23195 30.4789 5.02786C30.2664 4.82378 30.0491 4.6245 29.8276 4.43122C29.6055 4.23735 29.3786 4.04947 29.1476 3.867C28.9165 3.68452 28.6806 3.50805 28.4405 3.33758C28.201 3.16651 27.9567 3.00145 27.7088 2.84298C27.4609 2.68392 27.2088 2.53146 26.9537 2.385C26.698 2.23854 26.4393 2.09808 26.177 1.96423C25.9141 1.83037 25.6488 1.70312 25.3804 1.58247C25.1115 1.46183 24.8402 1.34778 24.5659 1.24034C24.2916 1.13289 24.0149 1.03205 23.7358 0.938414C23.4567 0.844176 23.1752 0.757741 22.8919 0.677309C22.6085 0.597477 22.3234 0.524247 22.0359 0.458221C21.749 0.392194 21.4609 0.33337 21.171 0.281149C20.881 0.229528 20.5899 0.18451 20.2976 0.147295C20.0053 0.10948 19.7124 0.0794679 19.4189 0.0560584C19.1253 0.0326489 18.8312 0.0164425 18.5371 0.00803899C18.2424 -0.000964684 17.9483 -0.00216509 17.6536 0.00323705C17.3594 0.00863919 17.0653 0.0218446 16.7712 0.0416526C16.4777 0.0620609 16.1842 0.0890717 15.8919 0.123886C15.5995 0.1581 15.3078 0.200117 15.0173 0.248736C14.7268 0.297356 14.4381 0.353178 14.15 0.416204C13.8624 0.479229 13.5761 0.549458 13.2922 0.626289C13.0077 0.70372 12.7256 0.787754 12.4453 0.87839C12.1656 0.969027 11.8877 1.06687 11.6121 1.17131C11.3366 1.27575 11.0641 1.3874 10.794 1.50504C10.5245 1.62329 10.2574 1.74754 9.99389 1.87839C9.72979 2.00925 9.46928 2.1467 9.21238 2.29076C8.95548 2.43422 8.70218 2.58428 8.45248 2.74094C8.20278 2.89701 7.95728 3.05907 7.71538 3.22774C7.47348 3.39581 7.23639 3.56988 7.0029 3.74995C6.77 3.93002 6.54131 4.1155 6.31742 4.30637C6.09293 4.49785 5.87385 4.69413 5.65956 4.89581C5.44527 5.09809 5.23579 5.30518 5.03171 5.51706C4.82703 5.72955 4.62835 5.94684 4.43447 6.16832C4.24119 6.39041 4.05332 6.61731 3.87084 6.8484C3.68837 7.07949 3.5113 7.31479 3.34083 7.55488C3.16976 7.79498 3.0047 8.03868 2.84563 8.28658C2.68657 8.53448 2.53411 8.78598 2.38765 9.04168C2.24119 9.29739 2.10074 9.55609 1.96688 9.8184C1.83303 10.0807 1.70578 10.346 1.58453 10.6149C1.46388 10.8832 1.34984 11.1551 1.24239 11.4288C1.13495 11.7032 1.03411 11.9799 0.939872 12.259C0.846235 12.5381 0.7592 12.8196 0.678768 13.1029C0.598936 13.3862 0.525707 13.6714 0.45968 13.9583C0.393654 14.2458 0.33423 14.5339 0.28261 14.8238C0.230389 15.1137 0.185371 15.4049 0.148156 15.6972C0.110341 15.9889 0.0797284 16.2818 0.056319 16.5753C0.0329096 16.8688 0.0173035 17.163 0.00829982 17.4577C-0.000703819 17.7518 -0.00250458 18.0465 0.0034979 18.3406C0.00890002 18.6354 0.021505 18.9295 0.0419133 19.2236C0.0617211 19.5171 0.0887319 19.8106 0.123546 20.1029C0.15776 20.3953 0.199176 20.687 0.247796 20.9775C0.296415 21.268 0.352237 21.5567 0.415263 21.8449C0.478288 22.1324 0.547916 22.4181 0.625347 22.7026C0.702177 22.9871 0.786211 23.2692 0.876847 23.5495C0.967483 23.8299 1.06532 24.1072 1.16976 24.3827C1.27421 24.6582 1.38525 24.9307 1.5029 25.2008C1.62114 25.4709 1.74539 25.7374 1.87625 26.0015C2.0071 26.265 2.14455 26.5255 2.28801 26.783C2.43207 27.0399 2.58153 27.2933 2.73819 27.543C2.89425 27.7927 3.05632 28.0388 3.22439 28.28C3.39245 28.5219 3.56652 28.7596 3.74659 28.9925C3.92667 29.226 4.11214 29.4547 4.30302 29.6786C4.49389 29.9031 4.69077 30.1222 4.89245 30.3365C5.09413 30.5514 5.30122 30.7603 5.5137 30.9649C5.72559 31.169 5.94287 31.3683 6.16436 31.5616C6.38645 31.7555 6.61274 31.9433 6.84383 32.1258C7.07493 32.3089 7.31082 32.4853 7.55032 32.6564C7.79041 32.8275 8.03411 32.9926 8.28201 33.1516C8.52991 33.3101 8.78141 33.4631 9.03711 33.6096C9.29221 33.7567 9.55152 33.8965 9.81382 34.031C10.0761 34.1648 10.3414 34.2921 10.6097 34.4133C10.8786 34.534 11.15 34.648 11.4243 34.7561C11.698 34.8635 11.9747 34.9643 12.2538 35.058C12.5329 35.1522 12.8144 35.2393 13.0977 35.3197C13.381 35.4001 13.6662 35.4728 13.9531 35.5394C14.2406 35.6054 14.5287 35.6648 14.8186 35.7165C15.1085 35.7687 15.3997 35.8137 15.6914 35.8515C15.9837 35.8893 16.2766 35.9199 16.5701 35.9433C16.8636 35.9668 17.1578 35.983 17.4519 35.992C17.7466 36.001 18.0413 36.0022 18.336 35.9968C18.6307 35.9914 18.9255 35.9788 19.219 35.9589C19.5131 35.9385 19.8066 35.9115 20.0995 35.8773C20.3925 35.8425 20.6842 35.8011 20.9747 35.7525C21.2652 35.7038 21.5545 35.648 21.8426 35.585C22.1307 35.522 22.4171 35.4523 22.7016 35.3755C22.9861 35.2981 23.2682 35.214 23.5485 35.1234C23.8294 35.0328 24.1073 34.9349 24.3828 34.8305C24.6584 34.7261 24.9315 34.6144 25.2016 34.4968C25.4717 34.3785 25.7388 34.2543 26.0023 34.1234C26.2664 33.992 26.5275 33.8545 26.7844 33.711C27.0419 33.567 27.2952 33.4169 27.5455 33.2609C27.7952 33.1042 28.0413 32.9421 28.2832 32.7735C28.5251 32.6054 28.7628 32.4313 28.9957 32.2513C29.2292 32.0712 29.4579 31.8851 29.6824 31.6942C29.9063 31.5027 30.1259 31.3059 30.3402 31.1036C30.5551 30.9019 30.7646 30.6948 30.9687 30.4823C31.1734 30.2699 31.3726 30.0526 31.5659 29.8305C31.7598 29.6084 31.9483 29.3815 32.1307 29.1504C32.3132 28.9187 32.4903 28.6828 32.6608 28.4427C32.8318 28.2026 32.9969 27.9589 33.156 27.7104C33.315 27.4625 33.4681 27.2104 33.6145 26.9547C33.761 26.699 33.9015 26.4397 34.0353 26.1774C34.1692 25.9145 34.2964 25.6492 34.4177 25.3803C34.5383 25.1114 34.6524 24.8395 34.7598 24.5652C34.8672 24.2908 34.9681 24.0141 35.0623 23.7344C35.156 23.4553 35.243 23.1738 35.3228 22.8899C35.4033 22.606 35.4759 22.3208 35.5425 22.0333C35.6085 21.7464 35.6674 21.4577 35.719 21.1672C35.7712 20.8773 35.8156 20.5861 35.8534 20.2938C35.8906 20.0015 35.9213 19.708 35.9441 19.4145C35.9675 19.1204 35.9837 18.8262 35.9921 18.5315ZM12.5281 27.4289L20.782 17.9919L12.5281 8.55429L14.4567 6.8574L24.2022 17.9919L14.4567 29.1258L12.5281 27.4289Z" fill="#ED6E05"/>
</svg>
