<svg width="36" height="36" viewBox="0 0 36 36" fill="none" xmlns="http://www.w3.org/2000/svg">
<mask id="mask0_70_809" style="mask-type:luminance" maskUnits="userSpaceOnUse" x="0" y="0" width="36" height="36">
<path d="M36 0H0V36H36V0Z" fill="white"/>
</mask>
<g mask="url(#mask0_70_809)">
<path d="M0.332811 18.5537C0.324539 18.2654 0.322766 17.9765 0.328675 17.6882C0.333992 17.3993 0.346991 17.111 0.367081 16.8226C0.386579 16.5349 0.413759 16.2478 0.448029 15.9607C0.481708 15.6741 0.523068 15.3882 0.570928 15.1034C0.619378 14.8192 0.674328 14.5356 0.736369 14.2537C0.798409 13.9713 0.86754 13.6912 0.94317 13.4123C1.01939 13.134 1.10211 12.8575 1.19133 12.5827C1.28114 12.3079 1.37745 12.0361 1.48026 11.766C1.58307 11.496 1.69297 11.2288 1.80878 10.9646C1.92518 10.6999 2.04749 10.438 2.17689 10.1797C2.3057 9.92143 2.441 9.66607 2.58281 9.41424C2.72462 9.16241 2.87233 8.91411 3.02596 8.66934C3.17958 8.42457 3.3397 8.18333 3.50515 7.9468C3.67118 7.70968 3.84253 7.47727 4.01979 7.24838C4.19704 7.02009 4.37962 6.79591 4.5681 6.57644C4.756 6.35697 4.9498 6.14221 5.14833 5.93216C5.34745 5.72151 5.5513 5.51675 5.75987 5.3167C5.96904 5.11665 6.18293 4.9213 6.40155 4.73184C6.62017 4.54179 6.84292 4.35763 7.0704 4.17876C7.29847 3.99989 7.53009 3.8269 7.76644 3.6598C8.00278 3.49211 8.24267 3.3303 8.4867 3.17496C8.73072 3.01904 8.97888 2.86959 9.23059 2.72602C9.48171 2.58246 9.73696 2.44477 9.99517 2.31356C10.2534 2.18235 10.5145 2.05761 10.7792 1.93935C11.0434 1.82108 11.3104 1.70929 11.5804 1.60397C11.8505 1.49864 12.1229 1.39979 12.3976 1.30801C12.6724 1.21563 12.9495 1.1309 13.2284 1.05206C13.5078 0.973801 13.7885 0.902017 14.0709 0.837295C14.3534 0.772572 14.6376 0.71491 14.9229 0.66372C15.2083 0.613118 15.4949 0.568989 15.7821 0.532509C16.0698 0.495441 16.3582 0.466021 16.6471 0.443074C16.936 0.420127 17.2255 0.40424 17.5151 0.396003C17.8052 0.387177 18.0947 0.386 18.3848 0.391296C18.6749 0.396591 18.9644 0.409536 19.2534 0.428953C19.5429 0.448958 19.8312 0.475435 20.119 0.509562C20.4073 0.5431 20.6939 0.584287 20.9799 0.631947C21.2658 0.679606 21.5506 0.734327 21.8337 0.796107C22.1167 0.857888 22.3985 0.92673 22.678 1.00204C22.9581 1.07795 23.2358 1.16032 23.5117 1.24917C23.7876 1.33801 24.0606 1.43392 24.3318 1.5363C24.603 1.63868 24.8713 1.74812 25.1372 1.86345C25.4025 1.97936 25.6654 2.10115 25.9248 2.22942C26.1848 2.35769 26.4412 2.49243 26.6941 2.63365C26.947 2.77427 27.1963 2.92137 27.4421 3.07494C27.6879 3.22792 27.9302 3.38678 28.1677 3.55212C28.4058 3.71687 28.6398 3.8875 28.869 4.06402C29.0989 4.24054 29.3234 4.42235 29.5444 4.60946C29.7648 4.79715 29.9805 4.98956 30.1914 5.18726C30.4029 5.38554 30.6085 5.58854 30.81 5.79624C31.0109 6.00453 31.2065 6.21752 31.3973 6.43464C31.5876 6.65234 31.7731 6.87476 31.9528 7.10128C32.1324 7.32781 32.3061 7.55846 32.4745 7.79382C32.6423 8.02917 32.8048 8.26806 32.9614 8.51107C33.1179 8.75407 33.268 9.0006 33.4128 9.25126C33.5569 9.50191 33.6946 9.75551 33.8264 10.0126C33.9581 10.2698 34.084 10.5298 34.2028 10.7934C34.3215 11.0564 34.4338 11.323 34.5401 11.5913C34.6459 11.8602 34.7446 12.1314 34.8373 12.405C34.9295 12.6786 35.0152 12.9546 35.0944 13.2323C35.1729 13.51 35.245 13.7895 35.31 14.0708C35.3756 14.3526 35.4335 14.635 35.4849 14.9192C35.5357 15.2034 35.5801 15.4888 35.6173 15.7753C35.6539 16.0613 35.684 16.3484 35.7071 16.6361C35.7301 16.9239 35.7461 17.2122 35.7544 17.5011C35.7632 17.7894 35.765 18.0783 35.7597 18.3666C35.7538 18.6555 35.7414 18.9438 35.7219 19.2321C35.7018 19.5198 35.6752 19.8075 35.6415 20.0941C35.6072 20.3806 35.5665 20.6666 35.5186 20.9514C35.4707 21.2362 35.4158 21.5192 35.3538 21.8016C35.2917 22.0834 35.2232 22.3635 35.1475 22.6424C35.0713 22.9213 34.9892 23.1978 34.8994 23.4726C34.8102 23.7474 34.7138 24.0192 34.611 24.2893C34.5082 24.5594 34.3989 24.8265 34.2831 25.0913C34.1673 25.3561 34.045 25.6173 33.9156 25.8762C33.7868 26.1345 33.6521 26.3899 33.5103 26.6423C33.369 26.8941 33.2213 27.1424 33.0677 27.3872C32.9141 27.6319 32.754 27.8732 32.5885 28.1097C32.4231 28.3468 32.2517 28.5798 32.0745 28.8081C31.8978 29.037 31.7152 29.2612 31.5267 29.4807C31.3388 29.7007 31.1456 29.9155 30.9465 30.1255C30.748 30.3362 30.5441 30.5409 30.3356 30.7416C30.1264 30.9416 29.9131 31.137 29.6945 31.3264C29.4759 31.5165 29.2531 31.7007 29.0256 31.8795C28.7981 32.059 28.5665 32.232 28.3302 32.3997C28.0938 32.5674 27.8539 32.7292 27.6099 32.8851C27.3659 33.0404 27.1183 33.1905 26.8666 33.334C26.6155 33.4782 26.3608 33.6153 26.1026 33.7471C25.8444 33.8783 25.5827 34.003 25.3186 34.1219C25.0539 34.2401 24.7868 34.3519 24.5174 34.4578C24.2473 34.5632 23.9749 34.662 23.7002 34.7538C23.4254 34.8462 23.1483 34.9315 22.8694 35.0103C22.5906 35.0892 22.3099 35.1604 22.0275 35.2257C21.745 35.2904 21.4608 35.3487 21.1754 35.3993C20.8901 35.4505 20.6035 35.4946 20.3163 35.5317C20.0286 35.5687 19.7402 35.5987 19.4513 35.6217C19.1624 35.6446 18.8729 35.6605 18.5833 35.6693C18.2932 35.6782 18.0031 35.6793 17.713 35.674C17.4229 35.6688 17.1334 35.6564 16.8438 35.637C16.5543 35.617 16.2654 35.5905 15.977 35.557C15.6893 35.5228 15.4021 35.4822 15.1156 35.4346C14.8296 35.3869 14.5448 35.3322 14.2612 35.2704C13.9782 35.2086 13.6963 35.1404 13.4163 35.0651C13.1362 34.9892 12.8579 34.9068 12.582 34.8179C12.306 34.7291 12.0325 34.6332 11.7607 34.5308C11.4895 34.4284 11.2212 34.319 10.9553 34.2037C10.6894 34.0878 10.4265 33.966 10.1665 33.8377C9.90654 33.7088 9.6501 33.5741 9.39662 33.4335C9.14314 33.2923 8.8938 33.1452 8.648 32.9922C8.40161 32.8386 8.15995 32.6797 7.92183 32.5144C7.68372 32.3497 7.44974 32.179 7.21989 32.0025C6.99005 31.826 6.76493 31.6436 6.54394 31.4565C6.32355 31.2688 6.1073 31.0758 5.89636 30.8775C5.68483 30.6798 5.47862 30.4768 5.27773 30.2685C5.07625 30.0602 4.88067 29.8472 4.68982 29.6295C4.49897 29.4118 4.31403 29.1894 4.13382 28.9629C3.9542 28.7358 3.78049 28.5045 3.61209 28.2692C3.4437 28.0338 3.28121 27.7949 3.12463 27.5513C2.96805 27.3083 2.81797 27.0612 2.67321 26.8106C2.52904 26.5599 2.39078 26.3057 2.25902 26.0486C2.12726 25.7909 2.00199 25.5308 1.88323 25.2672C1.76388 25.0036 1.65161 24.7371 1.54585 24.4682C1.44008 24.1993 1.34082 23.928 1.24865 23.6538C1.15588 23.3802 1.07021 23.1043 0.991621 22.826C0.912446 22.5477 0.840951 22.2682 0.775957 21.9864C0.710962 21.7051 0.652467 21.4221 0.601652 21.1373C0.550838 20.8531 0.506524 20.5677 0.46989 20.2812C0.432666 19.9947 0.402532 19.7069 0.38008 19.4192C0.357036 19.1309 0.341673 18.8426 0.332811 18.5537ZM23.4308 27.2754L15.3052 18.0247L23.4308 8.77349L21.5323 7.11011L11.9385 18.0247L21.5323 28.9388L23.4308 27.2754Z" fill="#ED6E05"/>
</g>
</svg>
