<svg width="36" height="36" viewBox="0 0 36 36" fill="none" xmlns="http://www.w3.org/2000/svg">
<mask id="mask0_15_667" style="mask-type:luminance" maskUnits="userSpaceOnUse" x="0" y="0" width="36" height="36">
<path d="M36 3.05176e-05H0V36H36V3.05176e-05Z" fill="white"/>
</mask>
<g mask="url(#mask0_15_667)">
<mask id="mask1_15_667" style="mask-type:luminance" maskUnits="userSpaceOnUse" x="0" y="3" width="29" height="24">
<path d="M0 3.39011H28.8606V26.6911H0V3.39011Z" fill="white"/>
</mask>
<g mask="url(#mask1_15_667)">
<path d="M28.543 8.22324C28.3142 7.9336 27.9734 7.76548 27.6134 7.76548H7.03792L6.04774 4.29074C5.89548 3.75661 5.42584 3.39059 4.892 3.39059H1.21059C0.544659 3.39059 0.00439453 3.95451 0.00439453 4.65003C0.00439453 5.34604 0.544659 5.90947 1.21059 5.90947H3.99263L8.49957 21.7216C8.01113 22.6573 7.54746 23.9965 8.07305 25.1185C8.5381 26.1119 9.58927 26.6157 11.1968 26.6157C11.2261 26.6157 11.255 26.6148 11.2844 26.6114C11.3889 26.6013 21.7778 25.6066 25.3597 25.8184C25.8821 25.8477 26.3347 25.4303 26.3641 24.8817C26.3939 24.3337 25.9921 23.8639 25.467 23.8332C21.8301 23.6189 12.0095 24.545 11.1546 24.6272C10.2731 24.6209 9.86491 24.4182 9.78373 24.2448C9.69292 24.0517 9.75713 23.6871 9.91031 23.2741C9.936 23.2726 9.96122 23.2721 9.98736 23.2688L25.727 21.2807C26.2471 21.2144 26.6672 20.8051 26.7663 20.2681L28.7976 9.26413C28.8654 8.89475 28.7723 8.51288 28.543 8.22324ZM19.8066 14.3331H14.8566V10.2848H19.8066V14.3331ZM9.25035 15.5263H13.7142V20.2604L10.7079 20.6409L9.25035 15.5263ZM14.8566 15.5263H19.8066V19.4909L14.8566 20.1163V15.5263ZM25.406 14.3331H20.9495V10.2848H26.1531L25.406 14.3331ZM13.7142 10.2848V14.3331H8.91004L7.75613 10.2848H13.7142ZM20.9495 19.3464V15.5263H25.1854L24.5644 18.8896L20.9495 19.3464Z" fill="#ED6E05"/>
</g>
<mask id="mask2_15_667" style="mask-type:luminance" maskUnits="userSpaceOnUse" x="7" y="27" width="6" height="6">
<path d="M7.27881 27.5519H12.21V32.6098H7.27881V27.5519Z" fill="white"/>
</mask>
<g mask="url(#mask2_15_667)">
<path d="M12.1279 30.1035C12.1279 30.1856 12.1237 30.2682 12.1164 30.3499C12.1086 30.432 12.0967 30.5137 12.0815 30.5944C12.0659 30.6751 12.0471 30.7548 12.0242 30.8341C12.0013 30.9128 11.9747 30.9902 11.9444 31.0665C11.9141 31.1424 11.8807 31.2169 11.8431 31.2899C11.8059 31.3624 11.7655 31.433 11.7215 31.5017C11.6779 31.5699 11.6307 31.6362 11.5807 31.7001C11.5307 31.7635 11.478 31.8245 11.422 31.8831C11.3661 31.9412 11.3078 31.9965 11.2468 32.0488C11.1858 32.1012 11.1225 32.1502 11.057 32.1958C10.9914 32.2419 10.9235 32.2842 10.8543 32.3231C10.7845 32.3615 10.7135 32.3971 10.6405 32.4283C10.5676 32.46 10.4933 32.4879 10.4176 32.5119C10.3424 32.5354 10.2658 32.5556 10.1883 32.5719C10.1108 32.5878 10.0328 32.5998 9.95442 32.6079C9.876 32.6161 9.79711 32.6199 9.71823 32.6199C9.63934 32.6199 9.56046 32.6161 9.48203 32.6079C9.40361 32.5998 9.32564 32.5878 9.24813 32.5719C9.17063 32.5556 9.09449 32.5354 9.01882 32.5119C8.94315 32.4879 8.86931 32.46 8.79638 32.4283C8.72346 32.3971 8.65192 32.3615 8.58266 32.3231C8.51295 32.2842 8.44508 32.2419 8.37949 32.1958C8.31391 32.1502 8.25062 32.1012 8.18962 32.0488C8.12862 31.9965 8.07038 31.9412 8.01442 31.8831C7.95893 31.8245 7.90573 31.7635 7.85574 31.7001C7.80575 31.6362 7.75851 31.5699 7.71494 31.5017C7.67091 31.433 7.63055 31.3624 7.5934 31.2899C7.55625 31.2169 7.52231 31.1424 7.49205 31.0665C7.46178 30.9902 7.43563 30.9128 7.4127 30.8341C7.38977 30.7548 7.37051 30.6751 7.35492 30.5944C7.33978 30.5137 7.32831 30.432 7.32052 30.3499C7.31272 30.2682 7.30859 30.1856 7.30859 30.1035C7.30859 30.0209 7.31272 29.9387 7.32052 29.8566C7.32831 29.7744 7.33978 29.6933 7.35492 29.6126C7.37051 29.5314 7.38977 29.4517 7.4127 29.3729C7.43563 29.2941 7.46178 29.2163 7.49205 29.1404C7.52231 29.064 7.55625 28.9896 7.5934 28.917C7.63055 28.8445 7.67091 28.7739 7.71494 28.7052C7.75851 28.6365 7.80575 28.5707 7.85574 28.5068C7.90573 28.443 7.95893 28.382 8.01442 28.3238C8.07038 28.2657 8.12862 28.21 8.18962 28.1581C8.25062 28.1058 8.31391 28.0568 8.37949 28.0107C8.44508 27.965 8.51295 27.9228 8.58266 27.8838C8.65192 27.8449 8.72346 27.8099 8.79638 27.7782C8.86931 27.7465 8.94315 27.7191 9.01882 27.6951C9.09449 27.6711 9.17063 27.6509 9.24813 27.635C9.32564 27.6187 9.40361 27.6067 9.48203 27.599C9.56046 27.5908 9.63934 27.5865 9.71823 27.5865C9.79711 27.5865 9.876 27.5908 9.95442 27.599C10.0328 27.6067 10.1108 27.6187 10.1883 27.635C10.2658 27.6509 10.3424 27.6711 10.4176 27.6951C10.4933 27.7191 10.5676 27.7465 10.6405 27.7782C10.7135 27.8099 10.7845 27.8449 10.8543 27.8838C10.9235 27.9228 10.9914 27.965 11.057 28.0107C11.1225 28.0568 11.1858 28.1058 11.2468 28.1581C11.3078 28.21 11.3661 28.2657 11.422 28.3238C11.478 28.382 11.5307 28.443 11.5807 28.5068C11.6307 28.5707 11.6779 28.6365 11.7215 28.7052C11.7655 28.7739 11.8059 28.8445 11.8431 28.917C11.8807 28.9896 11.9141 29.064 11.9444 29.1404C11.9747 29.2163 12.0013 29.2941 12.0242 29.3729C12.0471 29.4517 12.0659 29.5314 12.0815 29.6126C12.0967 29.6933 12.1086 29.7744 12.1164 29.8566C12.1237 29.9387 12.1279 30.0209 12.1279 30.1035Z" fill="#ED6E05"/>
</g>
<mask id="mask3_15_667" style="mask-type:luminance" maskUnits="userSpaceOnUse" x="21" y="27" width="5" height="6">
<path d="M21.0161 27.5519H25.9473V32.6098H21.0161V27.5519Z" fill="white"/>
</mask>
<g mask="url(#mask3_15_667)">
<path d="M25.8368 30.1035C25.8368 30.1856 25.8327 30.2682 25.8254 30.3499C25.8176 30.432 25.8061 30.5137 25.7905 30.5944C25.7749 30.6751 25.7561 30.7548 25.7332 30.8341C25.7103 30.9128 25.6837 30.9902 25.6534 31.0665C25.6231 31.1424 25.5896 31.2169 25.5525 31.2899C25.5149 31.3624 25.4745 31.433 25.4305 31.5017C25.3869 31.5699 25.3402 31.6362 25.2897 31.7001C25.2397 31.7635 25.187 31.8245 25.131 31.8831C25.0751 31.9412 25.0168 31.9965 24.9558 32.0488C24.8948 32.1012 24.8315 32.1502 24.7659 32.1958C24.7004 32.2419 24.6329 32.2842 24.5632 32.3231C24.4935 32.3615 24.4224 32.3971 24.3495 32.4283C24.2766 32.46 24.2023 32.4879 24.1266 32.5119C24.0514 32.5354 23.9748 32.5556 23.8973 32.5719C23.8198 32.5878 23.7418 32.5998 23.6634 32.6079C23.585 32.6161 23.5061 32.6199 23.4272 32.6199C23.3483 32.6199 23.2694 32.6161 23.191 32.6079C23.1126 32.5998 23.0346 32.5878 22.9571 32.5719C22.8796 32.5556 22.8035 32.5354 22.7278 32.5119C22.6521 32.4879 22.5783 32.46 22.5054 32.4283C22.4324 32.3971 22.3609 32.3615 22.2916 32.3231C22.2219 32.2842 22.1541 32.2419 22.0885 32.1958C22.0229 32.1502 21.9596 32.1012 21.8986 32.0488C21.8376 31.9965 21.7794 31.9412 21.7234 31.8831C21.6679 31.8245 21.6147 31.7635 21.5647 31.7001C21.5147 31.6362 21.4675 31.5699 21.4239 31.5017C21.3799 31.433 21.3395 31.3624 21.3024 31.2899C21.2652 31.2169 21.2313 31.1424 21.201 31.0665C21.1712 30.9902 21.1446 30.9128 21.1217 30.8341C21.0988 30.7548 21.0795 30.6751 21.0639 30.5944C21.0488 30.5137 21.0373 30.432 21.0295 30.3499C21.0217 30.2682 21.0176 30.1856 21.0176 30.1035C21.0176 30.0209 21.0217 29.9387 21.0295 29.8566C21.0373 29.7744 21.0488 29.6933 21.0639 29.6126C21.0795 29.5314 21.0988 29.4517 21.1217 29.3729C21.1446 29.2941 21.1712 29.2163 21.201 29.1404C21.2313 29.064 21.2652 28.9896 21.3024 28.917C21.3395 28.8445 21.3799 28.7739 21.4239 28.7052C21.4675 28.6365 21.5147 28.5707 21.5647 28.5068C21.6147 28.443 21.6679 28.382 21.7234 28.3238C21.7794 28.2657 21.8376 28.21 21.8986 28.1581C21.9596 28.1058 22.0229 28.0568 22.0885 28.0107C22.1541 27.965 22.2219 27.9228 22.2916 27.8838C22.3609 27.8449 22.4324 27.8099 22.5054 27.7782C22.5783 27.7465 22.6521 27.7191 22.7278 27.6951C22.8035 27.6711 22.8796 27.6509 22.9571 27.635C23.0346 27.6187 23.1126 27.6067 23.191 27.599C23.2694 27.5908 23.3483 27.5865 23.4272 27.5865C23.5061 27.5865 23.585 27.5908 23.6634 27.599C23.7418 27.6067 23.8198 27.6187 23.8973 27.635C23.9748 27.6509 24.0514 27.6711 24.1266 27.6951C24.2023 27.7191 24.2766 27.7465 24.3495 27.7782C24.4224 27.8099 24.4935 27.8449 24.5632 27.8838C24.6329 27.9228 24.7004 27.965 24.7659 28.0107C24.8315 28.0568 24.8948 28.1058 24.9558 28.1581C25.0168 28.21 25.0751 28.2657 25.131 28.3238C25.187 28.382 25.2397 28.443 25.2897 28.5068C25.3402 28.5707 25.3869 28.6365 25.4305 28.7052C25.4745 28.7739 25.5149 28.8445 25.5525 28.917C25.5896 28.9896 25.6231 29.064 25.6534 29.1404C25.6837 29.2163 25.7103 29.2941 25.7332 29.3729C25.7561 29.4517 25.7749 29.5314 25.7905 29.6126C25.8061 29.6933 25.8176 29.7744 25.8254 29.8566C25.8327 29.9387 25.8368 30.0209 25.8368 30.1035Z" fill="#ED6E05"/>
</g>
</g>
</svg>
