<svg width="36" height="36" viewBox="0 0 36 36" fill="none" xmlns="http://www.w3.org/2000/svg">
<path fill-rule="evenodd" clip-rule="evenodd" d="M22.2788 18.0003L35.1132 5.16589C36.2938 3.98456 36.2966 2.06698 35.1153 0.884955C33.9361 -0.294288 32.0171 -0.295681 30.8344 0.887045L18 13.7215L5.16553 0.887045C3.9849 -0.294288 2.06663 -0.296377 0.885301 0.884955C-0.293939 2.0642 -0.295332 3.98317 0.886694 5.16589L13.7211 18.0003L0.886694 30.8348C-0.293939 32.0154 -0.296725 33.9337 0.885301 35.115C2.06454 36.2943 3.98281 36.2957 5.16553 35.113L18 22.2792L30.8344 35.113C32.0157 36.2943 33.9333 36.2964 35.1153 35.115C36.2938 33.9358 36.2959 32.0168 35.1132 30.8348L22.2788 18.0003Z" fill="#ED6E05"/>
</svg>
